<?xml version="1.0" encoding="utf-8"?>
<!-- Generator: Adobe Illustrator 23.1.1, SVG Export Plug-In . SVG Version: 6.00 Build 0)  -->
<svg version="1.1" id="Layer_1" xmlns="http://www.w3.org/2000/svg" xmlns:xlink="http://www.w3.org/1999/xlink" x="0px" y="0px"
	 viewBox="0 0 708.66 708.66" style="enable-background:new 0 0 708.66 708.66;" xml:space="preserve">
<style type="text/css">
	.st0{fill:#FFFFFF;}
</style>
<g>
	<g>
		<g>
			<path class="st0" d="M182.85,60.33l0.65,47.62l0.39,47.62l0.77,95.24l0.36,95.24l0.09,95.24l0.02,47.62
				c0.04,7.94-0.13,15.89,0.07,23.72c0.16,7.9,0.36,15.89,0.4,23.89c0.09,16.01-0.29,32.13-2.08,48.32
				c-0.91,8.09-2.2,16.21-4.17,24.3c-2.01,8.07-4.64,16.19-8.98,23.94c-2.18,3.86-4.77,7.64-8.11,11.01
				c-1.62,1.71-3.51,3.24-5.47,4.67c-2.03,1.36-4.15,2.63-6.44,3.58c-4.54,2-9.5,2.85-14.24,2.92c-4.75,0.09-9.37-0.73-13.6-1.84
				c-7.82-2.05-15.7-4.4-23.47-7.44c-7.76-3.03-15.4-6.82-22.49-11.68c-0.9-0.6-1.75-1.21-2.58-1.83l-2.48-1.83
				c-1.61-1.21-3.23-2.35-4.84-3.61c-1.61-1.27-3.24-2.5-4.83-3.8c-1.58-1.31-3.18-2.59-4.73-3.94c-6.24-5.35-12.19-11.1-17.7-17.35
				c-5.48-6.26-10.58-12.96-14.83-20.3c-4.26-7.31-7.82-15.15-10.15-23.43c-2.41-8.25-3.52-16.9-3.55-25.49
				c0.08-8.59,1.22-17.14,3.43-25.32c1.03-4.12,2.41-8.1,3.85-12.05c0.37-0.99,0.8-2.01,1.2-3.01l0.61-1.51l0.31-0.75l0.36-0.71
				l2.89-5.65c3.9-7.27,8.27-14.26,13.03-20.96c9.54-13.39,20.59-25.62,32.67-36.55c12.07-10.97,25.05-20.82,38.64-29.59
				c27.17-17.62,56.34-31.53,86.11-43.33c14.91-5.88,29.98-11.27,45.19-16.19c15.21-4.9,30.54-9.39,45.92-13.58
				c15.39-4.18,30.85-8.07,46.35-11.73c15.5-3.66,31.03-7.11,46.61-10.34c15.57-3.25,31.16-6.35,46.75-9.39l23.39-4.52l11.76-2.18
				l11.79-2c31.47-5.06,63.17-8.57,94.94-10.48c15.89-0.93,31.79-1.5,47.69-1.63c15.9-0.07,31.79,0.24,47.66,0.93l-0.02,0.8
				c-31.73-0.69-63.49,0.15-95.13,2.54c-31.64,2.42-63.16,6.45-94.4,11.99c-15.63,2.74-31.14,6.08-46.69,9.27
				c-15.54,3.23-31.07,6.51-46.57,9.94c-30.99,6.85-61.87,14.26-92.41,22.86c-30.54,8.61-60.77,18.38-90.21,30.21
				c-29.4,11.84-58.09,25.73-84.59,43.13c-13.25,8.68-25.89,18.3-37.59,28.97c-11.71,10.65-22.35,22.48-31.5,35.38
				c-9,12.96-17.27,26.72-20.98,42.13c-2.04,7.61-3.05,15.48-3.12,23.34c0.05,7.86,1.07,15.73,3.29,23.28
				c4.3,15.18,12.83,28.9,23.23,40.72c10.41,11.9,22.72,22.02,35.63,31.14c6.48,4.47,13.58,8.02,20.92,10.9
				c7.35,2.9,14.93,5.19,22.59,7.21c3.79,1,7.67,1.67,11.56,1.61c3.88-0.06,7.77-0.72,11.32-2.28c1.8-0.73,3.46-1.74,5.07-2.8
				c1.56-1.15,3.09-2.36,4.43-3.77c2.76-2.75,5.02-5.99,6.96-9.38c3.88-6.83,6.41-14.38,8.35-22.02c1.92-7.66,3.21-15.48,4.13-23.34
				c1.83-15.73,2.3-31.61,2.3-47.46c0-7.93-0.15-15.86-0.27-23.8c-0.15-7.95,0.04-15.88,0.07-23.82l0.41-47.62l3.25-380.97
				L182.85,60.33z"/>
		</g>
	</g>
	<g>
		<g>
			<path class="st0" d="M310.57,147.56c-10.47,0.38-20.91,1.06-31.31,2.03c-10.4,0.91-20.76,2.18-31.02,3.91
				c-10.26,1.73-20.43,3.93-30.43,6.65c-10,2.71-19.82,5.99-29.47,9.65c-9.63,3.71-19.04,7.99-28.2,12.73
				c-9.16,4.74-18.05,9.99-26.75,15.53c-8.69,5.57-17.14,11.52-25.39,17.77l-6.15,4.74l-6.07,4.84c-1.56,1.24-3.29,3.05-4.97,4.87
				c-1.68,1.83-3.33,3.75-4.94,5.7c-6.43,7.84-12.4,16.17-17.57,24.84c-5.14,8.66-9.59,17.76-12.17,27.01
				c-1.26,4.61-2.03,9.26-1.93,13.64c0.09,4.39,1.06,8.45,3.07,11.82c1.96,3.41,5.03,6.18,8.78,8.37c3.76,2.19,8.18,3.72,12.8,4.84
				c9.3,2.17,19.39,2.71,29.47,2.54c10.11-0.19,20.32-1.14,30.51-2.48c20.39-2.73,40.7-7.06,60.86-12.01
				c10.08-2.5,20.13-5.18,30.15-8c10.03-2.78,20.03-5.7,30-8.73c9.97-3.03,19.92-6.17,29.84-9.4l14.98-4.88
				c5.04-1.59,10.08-3.15,15.13-4.65c10.09-3.03,20.19-5.92,30.32-8.74c10.14-2.76,20.29-5.47,30.46-8.08
				c20.34-5.24,40.72-10.3,61.19-15c20.48-4.64,41.02-9.03,61.64-13.07c20.62-4.04,41.34-7.52,62.09-10.74
				c10.37-1.64,20.78-3.03,31.19-4.37c10.41-1.35,20.83-2.59,31.26-3.75c10.43-1.17,20.86-2.21,31.3-3.2
				c10.45-0.92,20.91-1.66,31.37-2.37l0.08,0.8c-41.66,4.32-83.17,10.11-124.43,17.34c-41.27,7.19-82.23,15.99-122.93,25.87
				c-20.35,4.94-40.64,10.13-60.87,15.56c-20.22,5.45-40.4,11.08-60.43,17.16c-5.01,1.51-10,3.08-14.99,4.67l-14.92,4.91
				c-9.96,3.27-19.94,6.45-29.96,9.52c-20.03,6.15-40.21,11.87-60.58,16.86c-20.37,4.95-40.92,9.28-61.74,12.01
				c-10.41,1.34-20.88,2.29-31.39,2.46c-10.49,0.14-21.09-0.41-31.39-2.89c-5.12-1.28-10.18-3.04-14.78-5.75
				c-4.57-2.7-8.7-6.41-11.35-11.11c-2.72-4.66-3.89-10.07-3.95-15.38c-0.07-5.33,0.88-10.6,2.3-15.68
				c2.93-10.17,7.7-19.65,13.11-28.65c5.46-8.99,11.64-17.51,18.4-25.55c1.7-2.01,3.43-3.98,5.23-5.9c1.81-1.91,3.63-3.82,5.75-5.47
				l6.22-4.81l6.3-4.71c8.45-6.21,17.12-12.12,26.05-17.65c17.83-11.05,36.7-20.48,56.44-27.62c19.75-7.13,40.28-11.96,61.05-14.86
				c20.78-2.89,41.78-3.93,62.73-3.92V147.56z"/>
		</g>
	</g>
</g>
<g>
	<g>
		<path class="st0" d="M190.62,278.79c12.88-7.04,25.88-13.86,38.77-20.86c12.88-7.02,25.72-14.13,38.03-22.06
			c3.08-1.98,6.09-4.03,9.14-6.1l9.13-6.15c6.06-4.12,12.04-8.32,17.62-12.98c5.57-4.66,10.69-9.81,15.11-15.54
			c0.58-0.73,1.07-1.38,1.5-2.09c0.43-0.71,0.8-1.45,1.1-2.23c0.59-1.54,0.91-3.18,0.9-4.81c0.01-3.25-1.42-6.43-3.96-8.22
			c-2.52-1.83-5.95-2.19-9.25-1.6c-3.32,0.58-6.57,2.01-9.61,3.75c-3.05,1.76-5.94,3.88-8.68,6.18c-2.75,2.31-5.34,4.77-7.89,7.38
			c-5.13,5.2-10.25,10.42-14.81,15.99c-2.29,2.78-4.36,5.69-6.32,8.73l-5.8,9.33c-7.81,12.52-16.42,24.52-25.32,36.22
			c-8.9,11.71-17.97,23.22-26.71,34.98l-10.53,14.15l7.08-16.13c1.31-2.99,3.28-5.38,5.3-7.57c2.05-2.17,4.24-4.13,6.45-6.01
			l3.34-2.77c1.14-0.91,2.3-1.84,3.49-2.69c2.38-1.72,4.82-3.33,7.33-4.82c10.02-5.96,20.62-10.59,31.27-14.94l1.84-0.75l0.76,1.85
			c0.69,1.68,0.96,3.61,0.73,5.42c-0.22,1.82-0.87,3.49-1.66,4.96c-1.62,2.96-3.78,5.31-5.94,7.52c-2.17,2.2-4.44,4.22-6.51,6.28
			c-1.03,1.03-2.02,2.08-2.8,3.14c-0.8,1.04-1.27,2.18-1.16,2.7l-2.58-1.65c6.73-2.14,13.36-4.79,19.84-7.71
			c6.46-2.95,12.84-6.17,18.76-9.93c2.92-1.89,5.85-3.94,8.02-6.3c0.53-0.58,0.98-1.2,1.27-1.76c0.06-0.14,0.13-0.27,0.17-0.39
			c0.03-0.06,0.04-0.12,0.06-0.17l0.03-0.08l0.04-0.18c0.12-0.51,0.27-1.01,0.45-1.49c0.71-1.96,1.81-3.71,3.09-5.22
			c2.59-3.02,5.77-5.2,9.02-7.02c3.27-1.81,6.68-3.25,10.13-4.48c6.92-2.46,14.01-4.15,21.16-5.43l2.66-0.45l0.13-0.02
			c0.02,0,0.02-0.01,0,0c1.39,0.8-2.7-2.25,0.21,3.92c0.3,0.03,0.29,0.01,0.29,0.02c0.11-0.01-0.05,0.01-0.11,0.02l-0.61,0.1
			l-1.28,0.23c-1.73,0.33-3.46,0.71-5.19,1.11c-3.45,0.81-6.89,1.72-10.27,2.75c-3.38,1.03-6.73,2.19-9.96,3.53
			c-3.23,1.34-6.38,2.87-9.15,4.78c-1.37,0.95-2.64,2.02-3.62,3.19c-0.99,1.17-1.59,2.45-1.66,3.68c-0.17,2.48,2.04,5.15,4.63,7.19
			l-0.27-0.18c0.4,0.21,1.06,0.39,1.79,0.44c0.74,0.06,1.54,0.03,2.36-0.04c1.64-0.16,3.34-0.49,5.03-0.91
			c3.39-0.84,6.76-1.98,10.11-3.22c3.33-1.25,6.72-2.59,9.99-3.96c1.62-0.7,3.26-1.41,4.63-2.23c1.43-0.85,2.2-1.63,2.97-3.09
			l-0.22,0.68c0.38-2.77,0.7-5.55,0.88-8.29c0.09-1.37,0.13-2.74,0.09-4.04c-0.03-0.65-0.07-1.29-0.17-1.83
			c-0.04-0.27-0.11-0.52-0.16-0.65c-0.02-0.05-0.05-0.09,0.01-0.01c0.04,0.06,0.08,0.12,0.25,0.25c0.08,0.05,0.19,0.13,0.36,0.19
			c0.08,0.03,0.19,0.06,0.31,0.08c0.06,0.01,0.15,0.02,0.22,0.02l0.16,0l0.09-0.01c0.04,0,0.14-0.02,0.21-0.03l1.57-1.84
			c-0.09,2.1-0.01,4.37,0.21,6.52c0.24,2.16,0.64,4.29,1.34,6.21c0.69,1.91,1.76,3.59,3.12,4.34c1.32,0.77,3.12,0.68,4.99,0.01
			l-0.53,0.28c3.27-2.5,6.64-5.04,8.87-8.03c0.55-0.75,1.03-1.57,1.51-2.45l1.46-2.78c0.99-1.9,2.14-3.79,3.27-5.56
			c4.4-7.03,8.48-14.4,12.57-21.71l12.18-22.06l6.14-11.03c2.08-3.67,4.13-7.32,6.44-10.97c0.3-0.46,0.6-0.91,0.94-1.39
			c0.17-0.24,0.35-0.48,0.57-0.75c0.12-0.14,0.23-0.27,0.45-0.47c0.05-0.04,0.1-0.09,0.19-0.16c0.08-0.06,0.15-0.12,0.33-0.22
			c0.1-0.05,0.11-0.07,0.28-0.14c0.17-0.07,0.34-0.11,0.52-0.14c0.27-0.04,0.71-0.01,1.01,0.11c0.34,0.12,0.73,0.41,0.93,0.69
			c0.13,0.18,0.24,0.38,0.32,0.59c0.06,0.18,0.07,0.23,0.09,0.35c0.04,0.25,0.04,0.32,0.04,0.44c0,0.13,0,0.19-0.01,0.27l-0.02,0.2
			c-0.03,0.24-0.07,0.41-0.11,0.58l-0.12,0.47l-0.07,0.24c-0.05,0.17-0.14,0.36-0.15,0.38l-0.09,0.17c-0.35,0.62-0.61,1-0.91,1.47
			l-3.46,5.28c-2.29,3.51-4.54,7.03-6.74,10.59c-4.39,7.12-8.58,14.35-12.3,21.78c-1.86,3.72-3.6,7.49-5.1,11.32
			c-1.49,3.83-2.78,7.75-3.44,11.67c-0.32,1.95-0.46,3.91-0.27,5.73c0.2,1.82,0.78,3.45,1.85,4.56c1.05,1.12,2.63,1.79,4.43,2.05
			c1.8,0.27,3.76,0.19,5.72-0.06l-0.69,0.22c8.42-4.54,16.77-9.2,24.83-14.25c4.02-2.53,7.98-5.16,11.69-8.03
			c1.85-1.44,3.64-2.93,5.23-4.54c0.8-0.8,1.54-1.63,2.17-2.49c0.62-0.85,1.15-1.74,1.39-2.54c0.24-0.82,0.19-1.38-0.11-1.92
			c-0.16-0.28-0.4-0.56-0.72-0.84c-0.23-0.22-0.49-0.34-0.88-0.48c-0.78-0.26-1.82-0.35-2.88-0.32c-1.07,0.03-2.18,0.15-3.3,0.33
			c-4.49,0.76-9.01,2.23-13.41,3.88c-2.2,0.84-4.39,1.74-6.49,2.72c-1.07,0.5-1.95,0.97-2.79,1.59c-0.83,0.6-1.55,1.3-2.12,2.07
			c-1.14,1.54-1.58,3.43-1.33,5.38c0.24,1.95,1.14,3.91,2.4,5.62c2.53,3.42,6.47,5.97,10.62,6.68c1.04,0.17,2.08,0.24,3.12,0.16
			c0.52-0.03,1.02-0.1,1.55-0.2l1.7-0.34c2.26-0.5,4.52-1.14,6.76-1.86c4.48-1.43,8.89-3.17,13.26-5.05l3.29-1.44
			c1.09-0.48,2.15-0.95,3.21-1.46c2.12-1.01,4.21-2.1,6.26-3.26c8.21-4.63,15.9-10.25,23.11-16.4c7.2-6.17,13.95-12.89,20.15-20.07
			c3.1-3.59,6.06-7.3,8.82-11.13c2.74-3.84,5.33-7.81,7.38-11.94c1-2.05,1.91-4.2,2.31-6.22c0.2-0.97,0.18-1.98-0.01-2.32
			c-0.1-0.16-0.08-0.16-0.25-0.25c-0.47-0.2-0.93-0.38-1.4-0.5c-1.9-0.52-3.97-0.38-6.01,0.23c-2.04,0.61-4.02,1.65-5.9,2.9
			c-3.76,2.52-7.13,5.8-10.19,9.31c-1.53,1.76-2.98,3.6-4.33,5.5c-0.68,0.96-1.3,1.88-1.9,2.88c-0.61,1-1.21,2.03-1.8,3.05
			c-2.35,4.12-4.55,8.33-6.58,12.62c-2.02,4.28-3.89,8.64-5.4,13.08c-0.75,2.22-1.41,4.45-1.88,6.69c-0.47,2.23-0.76,4.49-0.61,6.57
			c0.08,1.03,0.29,2,0.65,2.78c0.38,0.77,0.86,1.33,1.56,1.71c0.68,0.38,1.56,0.58,2.55,0.61c0.47,0.02,1.12-0.02,1.67-0.02
			c0.58,0,1.15-0.03,1.72-0.08c4.58-0.27,9.07-1.28,13.02-3.35c3.98-2.03,7.27-5.19,10.2-8.8l4.46-5.65
			c0.79-0.96,1.61-1.91,2.51-2.83c0.45-0.46,0.92-0.91,1.42-1.34c0.48-0.41,1.09-0.89,1.46-1.18c0.83-0.65,1.67-1.5,2.68-2.34
			c1.01-0.84,2.14-1.61,3.28-2.23c2.29-1.27,4.64-2.12,6.97-2.9c4.61-1.5,9.21-2.89,13.89-4.15c2.34-0.62,4.7-1.21,7.11-1.71
			c1.21-0.24,2.42-0.47,3.68-0.64c1.29-0.14,2.51-0.32,4.14-0.12l-0.22,3.98c-3.42,0.17-6.93,0.75-10.4,1.51
			c-3.47,0.76-6.93,1.69-10.35,2.74c-3.42,1.04-6.81,2.2-10.12,3.5c-0.83,0.32-1.65,0.66-2.47,1c-0.64,0.27-1.46,0.73-2.18,1.14
			c-1.49,0.86-2.92,1.84-4.28,2.88c-2.67,2.1-5.09,4.61-6.28,7.45c-0.28,0.71-0.49,1.43-0.62,2.15c-0.1,0.72-0.12,1.45-0.05,2.17
			c0.05,0.45,0.29,0.99,0.64,1.45c0.36,0.45,0.84,0.82,1.41,1.08c0.57,0.27,1.23,0.42,1.93,0.48c0.35,0.03,0.72,0.03,1.09,0.01
			c0.39-0.02,0.84-0.07,1.26-0.1c1.71-0.18,3.43-0.44,5.14-0.82c3.43-0.73,6.83-1.77,10.2-2.93c3.37-1.18,6.7-2.5,10-3.89
			c1.65-0.69,3.3-1.42,4.94-2.16l0.62-0.27c0.22-0.1,0.3-0.14,0.46-0.22c0.28-0.15,0.55-0.34,0.82-0.55
			c0.54-0.43,1.04-0.99,1.5-1.61c1.83-2.55,3.01-5.9,3.85-9.25c0.41-1.69,0.74-3.41,0.96-5.12c0.05-0.43,0.1-0.85,0.13-1.27
			c0.03-0.4,0.06-0.86,0.05-1.09c0-0.01,0-0.04,0.01,0.02c0.01,0.06-0.01,0,0.05,0.19c0.09-0.02-0.13,0.51,1.21,1.13
			c2.26,0.07,1.72-0.81,2-0.72c0.08-0.13,0.11-0.21,0.11-0.2c0.03-0.09-0.01,0.02-0.02,0.06l-0.23,0.62l-0.46,1.25
			c-1.17,3.33-2.23,6.75-2.58,10.08c-0.08,0.83-0.12,1.65-0.05,2.42c0.05,0.77,0.19,1.5,0.45,2.08c0.25,0.59,0.6,0.99,1.08,1.28
			c0.47,0.29,1.1,0.47,1.83,0.51c1.46,0.09,3.14-0.27,4.79-0.75c1.31-0.35,2.56-1.4,3.71-2.62c2.28-2.49,4.12-5.57,5.78-8.7
			c1.66-3.15,3.13-6.42,4.48-9.74c1.34-3.32,2.59-6.72,3.58-10.1c0.05-0.19,0.11-0.41,0.13-0.52c0-0.01,0-0.06,0,0.04
			c0.05,0.07-0.11,0.08,0.25,0.68c1.13,1.02,1.95,0.04,1.78,0.18c0.14-0.14,0.1-0.11,0.1-0.11l-0.05,0.08
			c-0.17,0.29-0.37,0.7-0.54,1.09c-0.36,0.79-0.7,1.62-1.02,2.44c-0.64,1.66-1.23,3.35-1.76,5.05c-1.05,3.4-1.94,6.89-2.3,10.37
			c-0.17,1.73-0.2,3.48,0.15,5.05c0.18,0.78,0.47,1.49,0.9,2.01c0.43,0.52,0.97,0.84,1.7,0.96c1.47,0.32,3.14-0.09,4.75-0.69
			c1.62-0.61,3.23-1.42,4.88-2.2c0.8-0.39,1.72-0.78,2.49-1.11c0.72-0.33,1.37-0.8,1.94-1.38c1.15-1.17,1.98-2.71,2.65-4.32
			c1.35-3.26,2.14-6.81,3.38-10.28c0.63-1.73,1.37-3.48,2.55-5.02c0.59-0.77,1.32-1.47,2.18-1.99c0.41-0.26,0.92-0.48,1.33-0.63
			l1.28-0.49c3.41-1.27,6.86-2.47,10.47-3.21c0.91-0.18,1.83-0.31,2.77-0.36c0.47-0.02,0.95-0.01,1.45,0.06
			c0.49,0.07,1.01,0.19,1.49,0.55c0.47,0.35,0.75,0.85,0.9,1.33c0.16,0.49,0.23,0.98,0.26,1.45c0.05,0.96-0.05,1.89-0.19,2.8
			c-0.63,3.64-1.89,7.07-3.22,10.45c-0.68,1.69-1.4,3.35-2.17,5c-0.38,0.82-0.78,1.64-1.19,2.45l-0.64,1.21l-0.34,0.6
			c-0.14,0.21-0.19,0.37-0.47,0.63c0.01,0.24-0.56-0.15-0.45-0.2c-0.01-0.09,0-0.12,0.01-0.16c0.01-0.08,0.03-0.13,0.05-0.19
			l0.11-0.34l0.24-0.64l0.52-1.26l1.08-2.5l2.24-4.95c1.52-3.29,3.06-6.57,4.64-9.83l2.4-4.88c0.83-1.61,1.61-3.25,2.59-4.78
			c-0.95,1.54-1.71,3.19-2.51,4.81l-2.32,4.91c-1.53,3.29-3.02,6.59-4.48,9.9l-2.16,4.98l-1.04,2.51l-0.49,1.26l-0.23,0.63
			l-0.1,0.31c-0.01,0.05-0.03,0.11-0.03,0.14c-0.01,0.02,0,0.04-0.01,0.01c0.09,0.02-0.39-0.34-0.34-0.15
			c0.05-0.06,0.22-0.31,0.31-0.48l0.32-0.59l0.61-1.2c0.4-0.81,0.78-1.63,1.14-2.45c0.74-1.65,1.43-3.32,2.08-5
			c1.27-3.37,2.46-6.81,3.01-10.33c0.12-0.88,0.2-1.76,0.14-2.61c-0.06-0.83-0.28-1.7-0.83-2.09c-0.54-0.39-1.48-0.41-2.31-0.36
			c-0.86,0.06-1.74,0.21-2.61,0.4c-3.48,0.79-6.88,2.04-10.23,3.35c-0.83,0.35-1.72,0.63-2.37,1.05c-0.68,0.43-1.28,1.02-1.78,1.69
			c-1,1.36-1.68,3.01-2.25,4.68c-1.14,3.37-1.86,6.95-3.22,10.42c-0.69,1.73-1.56,3.47-2.93,4.92c-0.68,0.72-1.51,1.35-2.43,1.8
			c-0.88,0.4-1.63,0.74-2.45,1.16c-1.61,0.79-3.23,1.66-4.98,2.36c-1.74,0.68-3.73,1.27-5.85,0.89c-1.06-0.14-2.21-0.76-2.93-1.64
			c-0.74-0.88-1.13-1.9-1.38-2.87c-0.47-1.97-0.42-3.89-0.28-5.76c0.33-3.74,1.2-7.33,2.23-10.86c0.52-1.76,1.1-3.51,1.74-5.23
			c0.32-0.86,0.66-1.72,1.03-2.59c0.2-0.44,0.38-0.85,0.65-1.35l0.13-0.21c0.07-0.09,0.09-0.16,0.31-0.37
			c-0.12,0.1,0.76-0.92,1.93,0.15c0.4,0.65,0.24,0.72,0.29,0.85c0,0.21-0.02,0.28-0.03,0.38c-0.05,0.33-0.11,0.56-0.18,0.8
			c-0.99,3.59-2.19,7.01-3.51,10.44c-1.32,3.41-2.77,6.78-4.44,10.07c-1.69,3.28-3.52,6.52-6.09,9.44
			c-0.65,0.73-1.37,1.42-2.19,2.06c-0.42,0.31-0.86,0.61-1.34,0.88c-0.46,0.26-1.06,0.5-1.54,0.64c-1.81,0.56-3.72,1.05-5.89,0.98
			c-1.07-0.04-2.26-0.28-3.35-0.92c-1.1-0.62-1.98-1.67-2.45-2.74c-0.5-1.08-0.7-2.16-0.79-3.19c-0.1-1.04-0.07-2.03,0-3.01
			c0.35-3.89,1.42-7.47,2.57-10.99l0.46-1.31l0.23-0.65c0.02-0.06,0.02-0.07,0.1-0.26c0.02-0.04,0.07-0.17,0.18-0.35
			c0.3,0.04-0.2-0.9,2.12-0.81c1.39,0.64,1.19,1.23,1.29,1.26c0.08,0.25,0.06,0.25,0.09,0.36c0.03,0.17,0.03,0.25,0.04,0.35
			c0.04,0.68,0,1.12-0.02,1.62c-0.03,0.49-0.08,0.96-0.13,1.44c-0.21,1.89-0.52,3.73-0.94,5.57c-0.42,1.84-0.94,3.66-1.62,5.47
			c-0.68,1.8-1.53,3.59-2.73,5.27c-0.61,0.84-1.31,1.65-2.18,2.37c-0.43,0.36-0.9,0.69-1.42,0.98c-0.24,0.14-0.57,0.29-0.76,0.38
			l-0.62,0.28c-1.66,0.75-3.34,1.48-5.03,2.19c-3.37,1.42-6.79,2.75-10.27,3.95c-3.49,1.18-7.03,2.25-10.69,3.02
			c-1.83,0.4-3.69,0.69-5.59,0.88c-0.48,0.04-0.93,0.09-1.45,0.12c-0.53,0.02-1.07,0.03-1.62-0.02c-1.09-0.09-2.23-0.34-3.3-0.85
			c-2.15-1-3.99-3.01-4.33-5.7c-0.12-1.08-0.09-2.18,0.07-3.25c0.18-1.06,0.48-2.09,0.88-3.06c1.66-3.88,4.53-6.7,7.51-9.07
			c1.51-1.17,3.08-2.24,4.73-3.19c0.85-0.48,1.61-0.93,2.63-1.37c0.85-0.35,1.71-0.71,2.57-1.04c3.43-1.35,6.9-2.53,10.42-3.6
			c3.51-1.07,7.06-2.03,10.67-2.82c3.61-0.79,7.27-1.4,11.1-1.6l-0.22,3.98c-0.75-0.11-1.94-0.01-3.02,0.13
			c-1.12,0.15-2.26,0.36-3.4,0.59c-2.29,0.47-4.59,1.04-6.88,1.65c-4.58,1.23-9.16,2.62-13.67,4.08c-2.2,0.74-4.38,1.54-6.29,2.6
			c-0.96,0.53-1.83,1.11-2.66,1.8c-0.83,0.69-1.68,1.55-2.73,2.39c-0.57,0.45-0.91,0.71-1.34,1.08c-0.41,0.35-0.8,0.73-1.19,1.13
			c-0.78,0.79-1.52,1.66-2.26,2.55l-4.46,5.65c-3.08,3.81-6.85,7.48-11.45,9.82c-4.56,2.4-9.65,3.51-14.62,3.8
			c-0.62,0.05-1.25,0.08-1.87,0.08c-0.65,0.01-1.19,0.04-1.92,0.02c-1.4-0.05-2.94-0.33-4.36-1.12c-1.42-0.76-2.58-2.1-3.23-3.49
			c-0.65-1.4-0.92-2.82-1.03-4.18c-0.19-2.72,0.18-5.25,0.69-7.71c0.52-2.45,1.22-4.82,2.01-7.15c1.58-4.65,3.5-9.12,5.57-13.51
			c2.08-4.38,4.32-8.67,6.72-12.89c0.6-1.05,1.22-2.1,1.85-3.15c0.63-1.06,1.35-2.13,2.06-3.12c1.43-2.01,2.96-3.94,4.57-5.8
			c3.23-3.7,6.78-7.2,11-10.02c2.11-1.4,4.41-2.63,6.97-3.4c2.54-0.77,5.44-1.01,8.18-0.26c0.69,0.18,1.35,0.43,1.98,0.7
			c0.94,0.38,1.86,1.28,2.26,2.21c0.43,0.93,0.52,1.8,0.53,2.58c0.01,0.78-0.09,1.49-0.21,2.18c-0.54,2.7-1.56,5-2.65,7.24
			c-2.22,4.46-4.89,8.55-7.72,12.51c-2.84,3.95-5.87,7.74-9.04,11.41c-6.34,7.33-13.22,14.19-20.58,20.49
			c-7.37,6.29-15.24,12.05-23.74,16.85c-2.12,1.2-4.29,2.33-6.5,3.38c-1.1,0.53-2.23,1.03-3.34,1.52l-3.3,1.44
			c-4.44,1.91-8.97,3.69-13.62,5.18c-2.33,0.74-4.69,1.41-7.11,1.95l-1.83,0.37c-0.65,0.12-1.34,0.22-2.01,0.25
			c-1.36,0.1-2.72,0.01-4.05-0.21c-5.32-0.94-10-4-13.18-8.25c-1.57-2.14-2.79-4.66-3.15-7.49c-0.39-2.8,0.32-5.92,2.07-8.24
			c1.7-2.33,4.15-3.88,6.44-4.92c2.24-1.05,4.49-1.97,6.77-2.85c4.57-1.71,9.21-3.25,14.19-4.09c1.25-0.2,2.52-0.35,3.85-0.38
			c1.33-0.02,2.72,0.04,4.23,0.53c0.74,0.25,1.58,0.66,2.24,1.25c0.58,0.51,1.15,1.13,1.59,1.89c0.43,0.77,0.72,1.68,0.76,2.57
			c0.05,0.89-0.08,1.73-0.31,2.48c-0.46,1.5-1.22,2.68-2,3.76c-0.79,1.07-1.66,2.03-2.55,2.93c-1.79,1.8-3.68,3.38-5.62,4.89
			c-3.88,3-7.92,5.68-12.01,8.26c-8.19,5.13-16.6,9.82-25.07,14.39l-0.33,0.18l-0.36,0.05c-2.2,0.28-4.48,0.4-6.84,0.05
			c-2.32-0.33-4.88-1.29-6.73-3.26c-1.86-1.96-2.67-4.54-2.92-6.86c-0.25-2.36-0.06-4.63,0.3-6.82c0.74-4.38,2.11-8.48,3.66-12.47
			c1.56-3.99,3.35-7.86,5.24-11.66c3.8-7.59,8.05-14.91,12.48-22.1c2.22-3.59,4.49-7.15,6.79-10.67l3.44-5.26
			c0.27-0.41,0.58-0.91,0.75-1.21c0.01-0.02,0.01-0.01,0-0.01c0.02-0.03-0.04,0.09-0.08,0.2l0.04-0.14l0.08-0.3
			c0.02-0.09,0.04-0.17,0.04-0.19c0-0.02,0,0,0,0.01l0,0.07c0,0.06,0,0.06,0.03,0.25c0.02,0.09,0.02,0.1,0.07,0.25
			c0.06,0.18,0.16,0.36,0.28,0.5c0.18,0.26,0.54,0.53,0.86,0.63c0.28,0.12,0.68,0.14,0.92,0.1c0.14-0.02,0.29-0.06,0.43-0.11
			c0.14-0.06,0.13-0.06,0.19-0.09c0.12-0.07,0.14-0.09,0.17-0.11l0.04-0.04c0.02-0.02-0.04,0.05-0.09,0.1
			c-0.11,0.13-0.25,0.32-0.39,0.5c-0.27,0.38-0.55,0.8-0.82,1.22c-2.19,3.45-4.26,7.13-6.32,10.76l-6.12,11l-12.19,22.07
			c-4.12,7.34-8.18,14.69-12.69,21.91c-1.13,1.77-2.16,3.47-3.11,5.3l-1.47,2.8c-0.53,0.97-1.11,1.96-1.8,2.91
			c-1.38,1.89-3.03,3.44-4.67,4.87c-1.65,1.43-3.35,2.71-5.04,4.01l-0.24,0.18l-0.29,0.1c-1.23,0.43-2.56,0.75-4,0.77
			c-1.43,0.02-2.98-0.31-4.3-1.06c-1.32-0.74-2.36-1.82-3.13-2.94c-0.78-1.13-1.34-2.31-1.77-3.5c-0.87-2.38-1.3-4.78-1.56-7.16
			c-0.25-2.4-0.34-4.72-0.23-7.18l0.06-1.49l1.51-0.35c0.07-0.02,0.19-0.03,0.23-0.04l0.1-0.01c0.07,0,0.15,0,0.19,0
			c0.1,0,0.21,0.01,0.29,0.03c0.16,0.03,0.32,0.07,0.44,0.12c0.26,0.09,0.45,0.21,0.6,0.32c0.32,0.23,0.47,0.43,0.62,0.62
			c0.27,0.37,0.38,0.65,0.5,0.93c0.2,0.53,0.3,0.97,0.37,1.4c0.15,0.85,0.2,1.62,0.23,2.39c0.05,1.52,0,2.99-0.09,4.44
			c-0.19,2.9-0.52,5.75-0.91,8.59l-0.05,0.35l-0.17,0.33c-0.46,0.86-1.07,1.83-1.87,2.65c-0.8,0.82-1.69,1.46-2.55,1.97
			c-1.74,1.03-3.43,1.75-5.13,2.48c-3.39,1.42-6.73,2.74-10.16,4.03c-3.43,1.27-6.91,2.45-10.54,3.35
			c-1.82,0.45-3.67,0.82-5.63,1.01c-0.98,0.09-1.99,0.13-3.05,0.04c-1.06-0.1-2.22-0.3-3.41-0.94l-0.13-0.07l-0.14-0.11
			c-1.5-1.2-2.94-2.56-4.14-4.26c-1.19-1.66-2.13-3.89-1.99-6.27c0.14-2.37,1.26-4.46,2.58-6.01c1.32-1.59,2.85-2.83,4.42-3.93
			c3.15-2.17,6.51-3.78,9.9-5.19c3.4-1.41,6.85-2.6,10.33-3.66c3.48-1.06,6.99-1.99,10.53-2.82c1.77-0.41,3.54-0.8,5.34-1.15
			l1.36-0.25l0.72-0.11c0.16-0.02,0.22-0.04,0.55-0.06c0.02,0,0.04-0.02,0.37,0.02c2.94,6.18-1.22,3.14,0.15,3.94l-0.16,0.03
			l-0.2,0.04l-2.64,0.45c-6.97,1.24-13.89,2.91-20.51,5.26c-3.3,1.18-6.53,2.55-9.54,4.22c-3,1.67-5.82,3.65-7.91,6.11
			c-1.04,1.23-1.87,2.57-2.38,3.99c-0.13,0.36-0.24,0.72-0.33,1.08l-0.1,0.39c-0.04,0.16-0.09,0.32-0.15,0.47
			c-0.11,0.3-0.24,0.57-0.37,0.84c-0.54,1.03-1.19,1.86-1.86,2.61c-2.71,2.92-5.76,4.99-8.84,7c-6.19,3.94-12.68,7.2-19.27,10.21
			c-6.61,2.98-13.33,5.68-20.29,7.89l-2.29,0.73l-0.29-2.38c-0.15-1.24,0.14-2.36,0.53-3.24c0.39-0.9,0.87-1.65,1.37-2.33
			c1.01-1.37,2.1-2.51,3.2-3.61c2.2-2.19,4.43-4.18,6.5-6.27c2.05-2.08,3.98-4.25,5.26-6.6c1.29-2.35,1.69-4.78,0.75-6.99l2.6,1.1
			c-10.55,4.31-21.02,8.89-30.72,14.66c-2.42,1.44-4.77,2.99-7.03,4.62c-1.14,0.81-2.21,1.67-3.32,2.55l-3.28,2.72
			c-2.15,1.83-4.24,3.71-6.12,5.7c-1.86,2-3.55,4.13-4.54,6.42l-3.44-1.99c17.54-23.62,36.47-46.09,51.85-70.93
			c1.96-3.08,3.82-6.23,5.83-9.36c2.01-3.13,4.18-6.22,6.54-9.12c4.72-5.81,9.86-11.12,15.07-16.32
			c5.22-5.25,10.96-10.23,17.62-13.94c3.34-1.83,6.94-3.37,10.88-3.99c1.96-0.31,4.01-0.37,6.05-0.02c2.03,0.35,4.05,1.14,5.76,2.41
			c1.71,1.27,3.06,3,3.91,4.91c0.86,1.91,1.24,3.99,1.22,6.03c-0.02,2.04-0.45,4.06-1.21,5.93c-0.38,0.94-0.84,1.83-1.38,2.68
			c-0.53,0.85-1.17,1.65-1.74,2.35c-4.66,5.82-10.04,11.04-15.8,15.68c-5.77,4.66-11.89,8.79-18.04,12.81l-9.24,5.99
			c-3.06,2-6.15,4.02-9.28,5.95c-12.53,7.74-25.48,14.68-38.53,21.4C216.78,265.5,203.64,272.04,190.62,278.79z"/>
	</g>
</g>
</svg>
